<svg width="26" height="50" viewBox="0 0 26 50" fill="none" xmlns="http://www.w3.org/2000/svg">
<path d="M4.8815 12.8207L10.1209 17.479L4.18085 25.7189L3.80687 33.9449L10.9551 40.3982L20.719 34.4152L20.9941 28.3631L19.0381 24.3367L19.1868 21.0665L15.1887 24.7968L15.0146 28.6247L17.6574 30.7263L14.3277 32.5817L10.6602 30.1541L10.8965 24.9573L17.8127 17.8287L9.52817 9.88205L9.7327 5.38324L8.26113 0.132391L4.8815 12.8207Z" fill="#DEDEDE"/>
<path d="M2.08711 37.1246L11.3127 45.4068L22.9091 36.7336L22.8614 37.7827L11.2655 46.4449L2.0409 38.1411L2.08711 37.1246Z" fill="#DEDEDE"/>
<path d="M11.3127 45.4068L2.08711 37.1246L2.0409 38.1411L11.2655 46.4449M11.3127 45.4068L22.9091 36.7336L22.8614 37.7827L11.2655 46.4449M11.3127 45.4068L11.2655 46.4449" stroke="#DEDEDE" stroke-width="4"/>
<path d="M20.6267 24.0463L22.3353 22.8423L22.1869 25.4372L20.6267 24.0463Z" fill="#DEDEDE"/>
<path d="M11.712 9.25533L13.0039 7.17607L14.3293 11.06L11.712 9.25533Z" fill="#DEDEDE"/>
<path d="M7.8035 18.3809L5.31948 21.9551L6.10623 16.665L7.8035 18.3809Z" fill="#DEDEDE"/>
</svg>
